<?xml version="1.0" encoding="utf-8"?>
<!-- Generator: Adobe Illustrator 17.0.0, SVG Export Plug-In . SVG Version: 6.00 Build 0)  -->
<!DOCTYPE svg PUBLIC "-//W3C//DTD SVG 1.1//EN" "http://www.w3.org/Graphics/SVG/1.1/DTD/svg11.dtd">
<svg version="1.1" id="Layer_1" xmlns="http://www.w3.org/2000/svg" xmlns:xlink="http://www.w3.org/1999/xlink" x="0px" y="0px"
	 width="1500px" height="1500px" viewBox="0 0 1500 1500" enable-background="new 0 0 1500 1500" xml:space="preserve">
<g>
	<g>
		<g>
			<path d="M165.965,1139.256h-8.96c-1.02,0-1.857-0.254-2.513-0.764c-0.655-0.51-1.129-1.165-1.421-1.967l-6.939-18.194h-34.585
				l-6.939,18.194c-0.255,0.693-0.729,1.321-1.421,1.885c-0.692,0.565-1.53,0.847-2.513,0.847h-8.96l31.252-78.458h11.746
				L165.965,1139.256z M142.963,1110.025l-11.637-30.432c-0.838-2.077-1.676-4.699-2.514-7.868c-0.401,1.566-0.81,3.023-1.229,4.371
				c-0.42,1.348-0.829,2.55-1.229,3.606l-11.584,30.323H142.963z"/>
			<path d="M226.119,1129.476v9.78h-44.912v-78.458h11.638v68.678H226.119z"/>
			<path d="M266.713,1060.797c5.027,0,9.398,0.583,13.114,1.749c3.715,1.166,6.792,2.814,9.233,4.945
				c2.44,2.131,4.252,4.708,5.436,7.731c1.183,3.024,1.776,6.375,1.776,10.053c0,3.68-0.637,7.058-1.912,10.135
				c-1.276,3.078-3.151,5.729-5.628,7.95c-2.477,2.222-5.564,3.943-9.26,5.162c-3.698,1.221-7.95,1.831-12.758,1.831h-12.129v28.903
				h-11.638v-78.458H266.713z M266.713,1101.174c2.95,0,5.546-0.382,7.786-1.148c2.24-0.765,4.116-1.848,5.628-3.25
				c1.511-1.402,2.65-3.078,3.415-5.027c0.765-1.948,1.148-4.106,1.148-6.475c0-4.771-1.485-8.523-4.453-11.255
				c-2.969-2.732-7.476-4.097-13.523-4.097h-12.129v31.251H266.713z"/>
			<path d="M378.774,1060.797v78.458h-11.638v-35.35h-40.923v35.35h-11.692v-78.458h11.692v34.64h40.923v-34.64H378.774z"/>
			<path d="M468.322,1139.256h-8.96c-1.02,0-1.857-0.254-2.513-0.764c-0.655-0.51-1.129-1.165-1.421-1.967l-6.939-18.194h-34.585
				l-6.939,18.194c-0.255,0.693-0.729,1.321-1.421,1.885c-0.693,0.565-1.53,0.847-2.513,0.847h-8.96l31.252-78.458h11.746
				L468.322,1139.256z M445.32,1110.025l-11.637-30.432c-0.838-2.077-1.676-4.699-2.514-7.868c-0.401,1.566-0.81,3.023-1.229,4.371
				c-0.42,1.348-0.829,2.55-1.229,3.606l-11.584,30.323H445.32z"/>
			<path d="M586.063,1100.026c0,5.865-0.938,11.247-2.814,16.145c-1.877,4.9-4.526,9.125-7.95,12.676s-7.521,6.31-12.293,8.277
				c-4.772,1.967-10.072,2.95-15.899,2.95c-5.791,0-11.082-0.983-15.872-2.95c-4.79-1.967-8.888-4.726-12.293-8.277
				c-3.406-3.551-6.057-7.776-7.95-12.676c-1.894-4.898-2.841-10.28-2.841-16.145c0-5.827,0.947-11.2,2.841-16.117
				c1.893-4.918,4.544-9.151,7.95-12.703c3.406-3.551,7.503-6.318,12.293-8.304c4.79-1.985,10.08-2.978,15.872-2.978
				c5.828,0,11.128,0.993,15.899,2.978c4.772,1.986,8.869,4.753,12.293,8.304c3.424,3.552,6.074,7.786,7.95,12.703
				C585.124,1088.827,586.063,1094.199,586.063,1100.026z M574.152,1100.026c0-4.661-0.638-8.851-1.913-12.566
				s-3.087-6.865-5.436-9.452c-2.349-2.586-5.19-4.571-8.523-5.955c-3.333-1.384-7.058-2.077-11.173-2.077
				c-4.116,0-7.84,0.693-11.173,2.077c-3.333,1.384-6.184,3.369-8.551,5.955c-2.368,2.587-4.189,5.737-5.463,9.452
				c-1.276,3.715-1.912,7.905-1.912,12.566c0,4.699,0.636,8.898,1.912,12.594c1.275,3.698,3.095,6.839,5.463,9.425
				c2.367,2.587,5.218,4.563,8.551,5.928c3.333,1.366,7.057,2.049,11.173,2.049c4.116,0,7.841-0.683,11.173-2.049
				c3.333-1.365,6.174-3.341,8.523-5.928c2.349-2.586,4.162-5.727,5.436-9.425C573.514,1108.924,574.152,1104.725,574.152,1100.026z
				"/>
			<path d="M688.615,1060.797v78.458h-10.162v-55.839c0-0.837,0.027-1.73,0.082-2.677c0.054-0.947,0.118-1.912,0.191-2.895
				l-26.116,47.916c-0.911,1.785-2.313,2.677-4.207,2.677h-1.638c-1.894,0-3.278-0.892-4.153-2.677l-26.608-48.081
				c0.219,2.041,0.328,3.953,0.328,5.737v55.839h-10.217v-78.458h8.632c1.02,0,1.812,0.101,2.377,0.301
				c0.564,0.2,1.102,0.756,1.612,1.666l26.225,46.987c0.51,0.948,0.984,1.949,1.421,3.005c0.437,1.057,0.856,2.113,1.257,3.169
				c0.764-2.149,1.657-4.225,2.677-6.229l25.734-46.932c0.473-0.91,0.992-1.466,1.557-1.666c0.564-0.2,1.357-0.301,2.377-0.301
				H688.615z"/>
			<path d="M762.155,1129.804l-0.055,9.452h-48.627v-78.458H762.1v9.452h-36.934v24.86h29.722v9.124h-29.722v25.57H762.155z"/>
			<path d="M844.331,1101.065v30.597c-3.971,2.841-8.196,4.963-12.676,6.365c-4.48,1.402-9.361,2.103-14.643,2.103
				c-6.338,0-12.066-0.983-17.183-2.95c-5.119-1.966-9.48-4.717-13.086-8.25c-3.606-3.533-6.384-7.758-8.332-12.675
				s-2.923-10.327-2.923-16.228c0-5.936,0.937-11.373,2.814-16.309c1.876-4.934,4.563-9.16,8.059-12.675
				c3.497-3.515,7.732-6.247,12.703-8.195c4.972-1.948,10.554-2.923,16.746-2.923c3.133,0,6.037,0.237,8.715,0.71
				c2.677,0.474,5.163,1.148,7.458,2.021c2.295,0.874,4.417,1.921,6.365,3.142s3.761,2.595,5.436,4.125l-3.333,5.245
				c-0.51,0.838-1.184,1.366-2.021,1.584c-0.838,0.219-1.749,0.02-2.732-0.601c-0.948-0.546-1.994-1.183-3.142-1.912
				c-1.148-0.728-2.513-1.402-4.098-2.021c-1.584-0.619-3.434-1.148-5.546-1.584c-2.113-0.437-4.608-0.656-7.485-0.656
				c-4.299,0-8.178,0.702-11.638,2.104c-3.461,1.403-6.411,3.415-8.851,6.037c-2.441,2.622-4.316,5.783-5.628,9.479
				c-1.311,3.697-1.966,7.841-1.966,12.43c0,4.808,0.692,9.117,2.076,12.922c1.384,3.806,3.342,7.031,5.874,9.671
				c2.532,2.641,5.609,4.653,9.233,6.037c3.624,1.385,7.676,2.077,12.157,2.077c1.749,0,3.378-0.1,4.891-0.301
				c1.511-0.2,2.959-0.482,4.344-0.847c1.383-0.364,2.722-0.82,4.016-1.366c1.292-0.546,2.577-1.147,3.851-1.803v-16.445h-11.583
				c-0.729,0-1.321-0.219-1.776-0.656c-0.456-0.437-0.683-0.983-0.683-1.639v-6.611H844.331z"/>
			<path d="M929.454,1139.256h-8.96c-1.02,0-1.857-0.254-2.513-0.764c-0.655-0.51-1.129-1.165-1.421-1.967l-6.939-18.194h-34.585
				l-6.939,18.194c-0.255,0.693-0.729,1.321-1.421,1.885c-0.693,0.565-1.53,0.847-2.513,0.847h-8.96l31.252-78.458h11.746
				L929.454,1139.256z M906.452,1110.025l-11.637-30.432c-0.838-2.077-1.676-4.699-2.514-7.868c-0.401,1.566-0.81,3.023-1.229,4.371
				c-0.42,1.348-0.829,2.55-1.229,3.606l-11.584,30.323H906.452z"/>
			<path d="M1042.551,1100.026c0,5.865-0.938,11.201-2.814,16.009c-1.876,4.808-4.526,8.933-7.949,12.375
				c-3.424,3.442-7.522,6.111-12.293,8.004c-4.773,1.894-10.072,2.841-15.9,2.841h-29.504v-78.458h29.504
				c5.828,0,11.127,0.948,15.9,2.841c4.771,1.894,8.869,4.563,12.293,8.004c3.423,3.442,6.074,7.576,7.949,12.402
				C1041.612,1088.872,1042.551,1094.199,1042.551,1100.026z M1030.64,1100.026c0-4.661-0.637-8.842-1.912-12.539
				c-1.276-3.696-3.087-6.829-5.436-9.397s-5.19-4.526-8.523-5.874c-3.333-1.348-7.058-2.021-11.174-2.021h-17.812v59.663h17.812
				c4.116,0,7.841-0.673,11.174-2.021c3.333-1.347,6.174-3.305,8.523-5.874c2.349-2.567,4.161-5.69,5.436-9.37
				C1030.002,1108.915,1030.64,1104.725,1030.64,1100.026z"/>
			<path d="M1074.35,1139.256h-11.692v-78.458h11.692V1139.256z"/>
			<path d="M1163.188,1101.065v30.597c-3.971,2.841-8.196,4.963-12.676,6.365c-4.48,1.402-9.361,2.103-14.642,2.103
				c-6.338,0-12.066-0.983-17.183-2.95c-5.119-1.966-9.48-4.717-13.086-8.25c-3.606-3.533-6.384-7.758-8.332-12.675
				c-1.949-4.918-2.923-10.327-2.923-16.228c0-5.936,0.937-11.373,2.814-16.309c1.876-4.934,4.563-9.16,8.059-12.675
				c3.497-3.515,7.732-6.247,12.703-8.195c4.972-1.948,10.554-2.923,16.746-2.923c3.133,0,6.037,0.237,8.715,0.71
				c2.677,0.474,5.163,1.148,7.458,2.021c2.295,0.874,4.417,1.921,6.365,3.142c1.948,1.221,3.761,2.595,5.436,4.125l-3.333,5.245
				c-0.51,0.838-1.184,1.366-2.021,1.584c-0.838,0.219-1.749,0.02-2.732-0.601c-0.948-0.546-1.994-1.183-3.142-1.912
				c-1.148-0.728-2.513-1.402-4.098-2.021c-1.584-0.619-3.433-1.148-5.546-1.584c-2.113-0.437-4.608-0.656-7.485-0.656
				c-4.299,0-8.178,0.702-11.638,2.104c-3.461,1.403-6.411,3.415-8.851,6.037c-2.441,2.622-4.316,5.783-5.628,9.479
				c-1.311,3.697-1.966,7.841-1.966,12.43c0,4.808,0.692,9.117,2.076,12.922c1.384,3.806,3.342,7.031,5.874,9.671
				c2.532,2.641,5.609,4.653,9.233,6.037c3.624,1.385,7.676,2.077,12.157,2.077c1.749,0,3.378-0.1,4.891-0.301
				c1.511-0.2,2.959-0.482,4.344-0.847c1.383-0.364,2.722-0.82,4.016-1.366c1.292-0.546,2.577-1.147,3.851-1.803v-16.445h-11.583
				c-0.729,0-1.32-0.219-1.776-0.656c-0.456-0.437-0.683-0.983-0.683-1.639v-6.611H1163.188z"/>
			<path d="M1196.025,1139.256h-11.692v-78.458h11.692V1139.256z"/>
			<path d="M1274.318,1070.523h-24.914v68.732h-11.583v-68.732h-25.024v-9.726h61.521V1070.523z"/>
			<path d="M1348.132,1139.256h-8.96c-1.02,0-1.857-0.254-2.513-0.764c-0.655-0.51-1.129-1.165-1.421-1.967l-6.939-18.194h-34.585
				l-6.939,18.194c-0.255,0.693-0.729,1.321-1.421,1.885c-0.693,0.565-1.53,0.847-2.513,0.847h-8.96l31.252-78.458h11.746
				L1348.132,1139.256z M1325.13,1110.025l-11.637-30.432c-0.838-2.077-1.676-4.699-2.514-7.868
				c-0.401,1.566-0.81,3.023-1.229,4.371c-0.42,1.348-0.829,2.55-1.229,3.606l-11.584,30.323H1325.13z"/>
			<path d="M1408.286,1129.476v9.78h-44.912v-78.458h11.638v68.678H1408.286z"/>
		</g>
	</g>
	<g>
		<polygon points="744.886,923.614 744.886,923.655 740.772,923.631 		"/>
		<polygon points="749.241,359.87 749.241,360.803 748.971,360.337 		"/>
		<path d="M1003.151,800.034c-3.913,17.258-9.482,33.914-16.506,49.768l19.415,33.513H569.54
			c11.639,14.8,25.034,28.145,39.934,39.634l126.978,0.652l4.314,0.05l4.114-0.05l138.918-0.652l54.985-0.251l134.905-0.702
			L1003.151,800.034z M850.486,535.944l-30.252-52.326l-70.989-122.814l-0.251-0.451l-0.301,0.451l-70.036,121.209
			c16.255-4.415,33.162-7.275,50.52-8.428l19.817-34.165l20.017,34.566l23.83,41.189l169.923,293.389
			c5.92-19.365,9.432-39.784,10.084-60.955L850.486,535.944z M491.878,883.315l16.757-28.948l23.479-40.536l173.585-299.71
			c-19.767,3.663-38.68,9.934-56.29,18.462l-128.684,222.6l-29.249,50.62L424.3,921.995l130.139,0.702
			c-11.188-12.141-21.222-25.335-30.051-39.383H491.878z"/>
		<polygon points="740.772,923.631 736.437,923.655 736.437,923.614 		"/>
		<polygon points="748.971,360.337 748.701,360.803 748.701,359.87 		"/>
		<path d="M699.126,964.89l-6.522,36.774l-0.452,2.559H381.757l20.871-43.747h195.108c-15.753-10.987-30.252-23.68-43.296-37.777
			c-11.188-12.141-21.222-25.335-30.051-39.383c-5.82-9.281-11.087-18.914-15.753-28.948l23.479-40.536
			c8.479,25.435,21.272,48.915,37.426,69.484c11.639,14.8,25.034,28.145,39.934,39.634c21.473,16.656,46.005,29.499,72.595,37.526
			C687.638,962.13,693.357,963.635,699.126,964.89z"/>
		<path d="M1118.243,1004.215H807.862l-0.712-4.016l-6.543-36.837c3.558-0.875,7.083-1.848,10.567-2.904
			c26.581-8.015,51.117-20.847,72.627-37.516l54.977-0.27c-13.02,14.116-27.521,26.802-43.265,37.786h201.875L1118.243,1004.215z"/>
		<path d="M1009.773,740.182c0,20.57-2.308,40.587-6.622,59.852c-3.913,17.258-9.482,33.914-16.506,49.768
			c-5.167,11.639-11.137,22.827-17.81,33.513h-45.152c17.258-21.974,30.653-47.259,39.082-74.752
			c5.92-19.365,9.432-39.784,10.084-60.955c0.1-2.458,0.1-4.967,0.1-7.425c0-88.899-49.717-166.009-122.463-204.238l-30.252-52.326
			C929.753,515.927,1009.773,618.573,1009.773,740.182z"/>
		<path d="M792.842,515.174c-14.9-3.161-30.402-4.816-46.206-4.816c-13.997,0-27.693,1.304-40.938,3.763
			c-19.767,3.663-38.68,9.934-56.29,18.462c-76.357,36.925-129.135,115.991-129.135,207.6c0,5.017,0.15,10.034,0.451,15.001
			l-29.249,50.62c-5.268-21.021-8.027-42.995-8.027-65.621c0-123.717,82.779-227.767,195.208-258.17
			c16.255-4.415,33.162-7.275,50.52-8.428c5.77-0.401,11.589-0.552,17.459-0.552c7.525,0,15,0.301,22.375,0.953L792.842,515.174z"/>
		<path d="M705.698,514.12l-173.585,299.71l-23.479,40.536c-7.174-15.402-12.994-31.657-17.158-48.564l29.249-50.62l128.684-222.6
			C667.018,524.054,685.932,517.783,705.698,514.12z"/>
		<path d="M968.835,883.315c-8.83,14.047-18.864,27.242-30.051,39.383l-54.985,0.251L744.88,923.6v0.05h-8.428v-0.05l-126.978-0.652
			c-14.9-11.489-28.295-24.834-39.934-39.634H968.835z"/>
		<path d="M792.842,515.174l-23.83-41.189c17.609,1.505,34.767,4.766,51.223,9.633l30.252,52.326l122.362,211.663
			c-0.652,21.171-4.164,41.59-10.084,60.955L792.842,515.174z"/>
		<path d="M705.698,514.12l-173.585,299.71c-6.171-18.613-10.084-38.279-11.388-58.648l128.684-222.6
			C667.018,524.054,685.932,517.783,705.698,514.12z"/>
		<path d="M569.54,883.315h354.143c-11.639,14.8-25.034,28.145-39.884,39.634L744.88,923.6v0.05h-8.428v-0.05l-126.978-0.652
			C594.574,911.459,581.179,898.115,569.54,883.315z"/>
		<path d="M972.848,747.607c-0.652,21.171-4.164,41.59-10.084,60.955L792.842,515.174c20.369,4.264,39.684,11.338,57.645,20.77
			L972.848,747.607z"/>
	</g>
</g>
</svg>
